<svg width="14" height="14" viewBox="0 0 14 14" fill="none" xmlns="http://www.w3.org/2000/svg">
<path fill-rule="evenodd" clip-rule="evenodd" d="M7.00005 14.0001C10.8661 14.0001 14.0001 10.8661 14.0001 7.00005C14.0001 3.13403 10.8661 0 7.00005 0C3.13403 0 0 3.13403 0 7.00005C0 10.8661 3.13403 14.0001 7.00005 14.0001ZM10.1573 4.58603C10.4177 4.32235 10.8608 4.30366 11.1457 4.54221C11.432 4.7814 11.453 5.18886 11.1932 5.45322L6.42549 10.2886C6.29601 10.4201 6.11399 10.4962 5.92079 10.5001C5.91659 10.4994 5.91168 10.4994 5.90748 10.4994C5.71989 10.4994 5.5407 10.4305 5.40839 10.3067L2.82608 7.88897C2.55447 7.63495 2.55867 7.22684 2.83448 6.97734C3.10958 6.72718 3.55198 6.73105 3.82429 6.98507L5.88722 8.91664L10.1573 4.58603Z" fill="white"/>
</svg>
