<svg width="16" height="16" viewBox="0 0 16 16" fill="none" xmlns="http://www.w3.org/2000/svg">
<path d="M12.952 2.90891C10.2207 0.178149 5.77886 0.178149 3.04758 2.90891C0.317474 5.63968 0.317474 10.0827 3.04758 12.8135C4.41322 14.1786 6.20663 14.8608 8.00007 14.8608C9.79352 14.8608 11.5863 14.1786 12.952 12.8135C15.6827 10.0828 15.6827 5.63968 12.952 2.90891ZM10.8883 9.9246C11.1165 10.1528 11.1165 10.5216 10.8883 10.7498C10.7745 10.8636 10.6251 10.9208 10.4757 10.9208C10.3263 10.9208 10.1769 10.8636 10.0631 10.7498L8.00005 8.68614L5.93758 10.7492C5.8232 10.863 5.67378 10.9202 5.52496 10.9202C5.37557 10.9202 5.22615 10.863 5.11234 10.7492C4.88416 10.521 4.88416 10.1516 5.11234 9.924L7.17481 7.86091L5.11177 5.79783C4.88359 5.56964 4.88359 5.20021 5.11177 4.9726C5.33937 4.74441 5.7088 4.74441 5.93698 4.9726L8.00002 7.03568L10.0631 4.9726C10.2912 4.74441 10.6601 4.74441 10.8883 4.9726C11.1165 5.20021 11.1165 5.56964 10.8883 5.79783L8.82523 7.86091L10.8883 9.9246Z" fill="white"/>
</svg>
