<svg width="16" height="16" viewBox="0 0 16 16" fill="none" xmlns="http://www.w3.org/2000/svg">
<path d="M8 1C4.13395 1 1 4.13406 1 8C1 11.8662 4.13395 15 8 15C11.8661 15 15 11.8662 15 8C15 4.13406 11.8661 1 8 1ZM8 4.5C8.48327 4.5 8.875 4.89178 8.875 5.375C8.875 5.85844 8.48327 6.25 8 6.25C7.51673 6.25 7.125 5.85844 7.125 5.375C7.125 4.89178 7.51673 4.5 8 4.5ZM9.3125 11.5H6.6875C6.44589 11.5 6.25 11.3043 6.25 11.0625C6.25 10.8209 6.44589 10.625 6.6875 10.625H7.125V8H6.6875C6.44589 8 6.25 7.80433 6.25 7.5625C6.25 7.32089 6.44589 7.125 6.6875 7.125H8.4375C8.67911 7.125 8.875 7.32089 8.875 7.5625V10.625H9.3125C9.55411 10.625 9.75 10.8209 9.75 11.0625C9.75 11.3043 9.55411 11.5 9.3125 11.5Z" fill="white"/>
</svg>
